<svg width="25" height="24" viewBox="0 0 25 24" fill="none" xmlns="http://www.w3.org/2000/svg">
<ellipse cx="10.5" cy="6.29883" rx="8" ry="2.5" fill="black" stroke="black" stroke-width="1.5"/>
<path d="M18.5 6.29883V9.29883C18.5 10.6795 14.9183 11.7988 10.5 11.7988C6.08172 11.7988 2.5 10.6795 2.5 9.29883V6.29883" stroke="black" stroke-width="1.5"/>
<path d="M6.5 12.5332C4.10879 12.9655 2.5 13.7734 2.5 14.6987C2.5 16.0795 6.08172 17.1987 10.5 17.1987C13.3689 17.1987 15.885 16.7268 17.297 16.0179" stroke="black" stroke-width="1.5"/>
<path d="M18.5 15.6973V17.6973C18.5 19.078 14.9183 20.1973 10.5 20.1973C6.08172 20.1973 2.5 19.078 2.5 17.6973V14.6973" stroke="black" stroke-width="1.5"/>
<path d="M18.4997 8.5332C20.8909 8.96546 22.4997 9.77339 22.4997 10.6987C22.4997 12.0795 18.918 13.1987 14.4997 13.1987C10.8402 13.1987 7.75467 12.4309 6.80273 11.3827" stroke="black" stroke-width="1.5"/>
<path d="M22.5 10.6973V13.6973C22.5 15.078 18.9183 16.1973 14.5 16.1973C10.0817 16.1973 6.5 15.078 6.5 13.6973V11.6973" stroke="black" stroke-width="1.5"/>
</svg>
