<svg width="15" height="16" viewBox="0 0 15 16" fill="none" xmlns="http://www.w3.org/2000/svg">
<path d="M0 14.1714V5.94286C0 5.65333 0.0649141 5.37905 0.194743 5.12C0.324571 4.86095 0.503467 4.64762 0.731429 4.48L6.21714 0.365714C6.53714 0.121905 6.90286 0 7.31428 0C7.72571 0 8.09143 0.121905 8.41143 0.365714L13.8971 4.48C14.1257 4.64762 14.3049 4.86095 14.4347 5.12C14.5646 5.37905 14.6292 5.65333 14.6286 5.94286V14.1714C14.6286 14.6743 14.4494 15.1049 14.091 15.4633C13.7326 15.8217 13.3022 16.0006 12.8 16H10.0571C9.79809 16 9.5811 15.9122 9.40617 15.7367C9.23124 15.5611 9.14346 15.3441 9.14285 15.0857V10.5143C9.14285 10.2552 9.05508 10.0382 8.87954 9.86331C8.704 9.68838 8.48701 9.60061 8.22857 9.6H6.4C6.14095 9.6 5.92396 9.68777 5.74903 9.86331C5.57409 10.0389 5.48632 10.2558 5.48571 10.5143V15.0857C5.48571 15.3448 5.39794 15.5621 5.2224 15.7376C5.04686 15.9131 4.82987 16.0006 4.57143 16H1.82857C1.32571 16 0.89539 15.8211 0.5376 15.4633C0.179809 15.1055 0.000609524 14.6749 0 14.1714Z" fill="#F4F4F4"/>
</svg>
