<svg width="25" height="24" viewBox="0 0 25 24" fill="none" xmlns="http://www.w3.org/2000/svg" opacity="0.5">
  <path fill-rule="evenodd" clip-rule="evenodd" d="M13.1464 1.24125C12.5917 0.919583 11.9083 0.919582 11.3536 1.24125L5.14639 4.84089C4.5917 5.16256 4.25 5.75703 4.25 6.40037V13.5996C4.25 14.243 4.5917 14.8374 5.14639 15.1591L11.3536 18.7587C11.9083 19.0804 12.5917 19.0804 13.1464 18.7587L19.3536 15.1591C19.9083 14.8374 20.25 14.243 20.25 13.5996V6.40037C20.25 5.75703 19.9083 5.16256 19.3536 4.84089L13.1464 1.24125ZM12.6211 4.92428C12.4867 4.58969 12.0131 4.58969 11.8787 4.92428L10.7917 7.6311C10.7345 7.77358 10.6008 7.87074 10.4476 7.88112L7.53735 8.07845C7.17762 8.10285 7.03125 8.55332 7.30794 8.7845L9.54639 10.6547C9.66421 10.7532 9.71529 10.9104 9.67783 11.0593L8.96619 13.8881C8.87823 14.2377 9.26142 14.5161 9.56679 14.3244L12.0372 12.7735C12.1672 12.6918 12.3325 12.6918 12.4626 12.7735L14.933 14.3244C15.2384 14.5161 15.6215 14.2377 15.5336 13.8881L14.8219 11.0593C14.7845 10.9104 14.8356 10.7532 14.9534 10.6547L17.1918 8.7845C17.4685 8.55332 17.3222 8.10285 16.9624 8.07845L14.0522 7.88112C13.899 7.87074 13.7653 7.77358 13.7081 7.6311L12.6211 4.92428Z" fill="#33c3fa"></path>
  <path d="M5.14496 16.3179L3.30963 19.4967C3.14343 19.7846 3.34358 20.1458 3.67577 20.1576L6.51851 20.2578L8.02674 22.6696C8.20298 22.9514 8.61589 22.9441 8.78209 22.6563L10.6114 19.4879L5.14496 16.3179Z" fill="#33c3fa"></path>
  <path d="M14.1033 19.3634L19.5697 16.1934L21.4769 19.4967C21.6431 19.7846 21.443 20.1458 21.1108 20.1576L18.2681 20.2578L16.7598 22.6696C16.5836 22.9514 16.1707 22.9441 16.0045 22.6563L14.1033 19.3634Z" fill="#33c3fa"></path>
</svg>
