<svg width="23" height="16" viewBox="0 0 23 16" fill="none" xmlns="http://www.w3.org/2000/svg">
<path d="M16.7192 4.50636V4C16.7192 1.72 13.2801 0 8.71924 0C4.15833 0 0.719238 1.72 0.719238 4V7.63636C0.719238 9.53545 3.1056 11.0445 6.53742 11.4964V12C6.53742 14.28 9.97651 16 14.5374 16C19.0983 16 22.5374 14.28 22.5374 12V8.36364C22.5374 6.48182 20.2265 4.97091 16.7192 4.50636ZM5.08287 9.71545C3.30197 9.21818 2.17378 8.39909 2.17378 7.63636V6.35727C2.9156 6.88273 3.90924 7.30636 5.08287 7.59091V9.71545ZM12.3556 7.59091C13.5292 7.30636 14.5229 6.88273 15.2647 6.35727V7.63636C15.2647 8.39909 14.1365 9.21818 12.3556 9.71545V7.59091ZM10.9011 14.0791C9.12015 13.5818 7.99197 12.7627 7.99197 12V11.6209C8.23106 11.63 8.47287 11.6364 8.71924 11.6364C9.07197 11.6364 9.41651 11.6245 9.75469 11.6045C10.1304 11.739 10.5131 11.8531 10.9011 11.9464V14.0791ZM10.9011 10.0227C10.1787 10.1294 9.44944 10.1826 8.71924 10.1818C7.98904 10.1826 7.25978 10.1294 6.53742 10.0227V7.86C7.26086 7.9542 7.98969 8.00096 8.71924 8C9.44879 8.00096 10.1776 7.9542 10.9011 7.86V10.0227ZM16.7192 14.3864C15.2724 14.5984 13.8024 14.5984 12.3556 14.3864V12.2182C13.0788 12.3154 13.8077 12.364 14.5374 12.3636C15.267 12.3646 15.9958 12.3178 16.7192 12.2236V14.3864ZM21.0829 12C21.0829 12.7627 19.9547 13.5818 18.1738 14.0791V11.9545C19.3474 11.67 20.3411 11.2464 21.0829 10.7209V12Z" fill="#F4F4F4"/>
</svg>
