<svg width="23" height="16" viewBox="0 0 23 16" fill="none" xmlns="http://www.w3.org/2000/svg">
<path d="M5.82264 9.07463C5.8251 9.12388 5.81752 9.17311 5.80036 9.21934C5.7832 9.26557 5.75681 9.30782 5.72281 9.34352C5.6888 9.37923 5.64789 9.40765 5.60255 9.42704C5.55722 9.44644 5.50841 9.45641 5.4591 9.45634H1.4493C1.28519 9.45659 1.12583 9.40132 0.997123 9.29951C0.868417 9.1977 0.777938 9.05534 0.7404 8.89559C0.717025 8.78625 0.718103 8.67309 0.743555 8.5642C0.769008 8.45532 0.818206 8.35341 0.887632 8.26576C1.52913 7.4151 2.38023 6.7453 3.35786 6.32175C2.92864 5.93041 2.59944 5.44191 2.39783 4.89718C2.19622 4.35244 2.12808 3.76733 2.1991 3.19084C2.27013 2.61435 2.47825 2.06328 2.80605 1.58377C3.13385 1.10426 3.57177 0.710271 4.08314 0.434809C4.59452 0.159348 5.16445 0.0104302 5.74521 0.000528361C6.32597 -0.00937349 6.90065 0.120029 7.42112 0.377898C7.94159 0.635766 8.39269 1.01459 8.73664 1.48265C9.08059 1.95071 9.30738 2.49437 9.39802 3.0681C9.40972 3.14525 9.3959 3.22412 9.35866 3.29269C9.32142 3.36127 9.2628 3.4158 9.19171 3.448C8.18325 3.91421 7.32919 4.65916 6.7303 5.59493C6.13141 6.53071 5.81269 7.61826 5.81173 8.72927C5.81173 8.8456 5.81173 8.96012 5.82264 9.07463ZM22.3635 8.26485C21.7236 7.41515 20.8744 6.74571 19.8988 6.32175C20.328 5.93041 20.6572 5.44191 20.8588 4.89718C21.0604 4.35244 21.1286 3.76733 21.0575 3.19084C20.9865 2.61435 20.7784 2.06328 20.4506 1.58377C20.1228 1.10426 19.6849 0.710271 19.1735 0.434809C18.6621 0.159348 18.0922 0.0104302 17.5114 0.000528361C16.9307 -0.00937349 16.356 0.120029 15.8355 0.377898C15.315 0.635766 14.8639 1.01459 14.52 1.48265C14.176 1.95071 13.9492 2.49437 13.8586 3.0681C13.8469 3.14525 13.8607 3.22412 13.898 3.29269C13.9352 3.36127 13.9938 3.4158 14.0649 3.448C15.0734 3.91421 15.9274 4.65916 16.5263 5.59493C17.1252 6.53071 17.4439 7.61826 17.4449 8.72927C17.4449 8.8456 17.4449 8.96012 17.434 9.07463C17.4315 9.12388 17.4391 9.17311 17.4563 9.21934C17.4734 9.26557 17.4998 9.30782 17.5338 9.34352C17.5678 9.37923 17.6087 9.40765 17.6541 9.42704C17.6994 9.44644 17.7482 9.45641 17.7975 9.45634H21.8073C21.9714 9.45659 22.1308 9.40132 22.2595 9.29951C22.3882 9.1977 22.4787 9.05534 22.5162 8.89559C22.5397 8.78605 22.5387 8.67265 22.513 8.56357C22.4874 8.4545 22.4379 8.35247 22.3681 8.26485H22.3635ZM14.2749 12.1892C14.9988 11.6348 15.5308 10.8675 15.7961 9.99507C16.0614 9.12267 16.0467 8.18906 15.754 7.32547C15.4613 6.46187 14.9053 5.71171 14.1643 5.1804C13.4232 4.64909 12.5343 4.36336 11.6224 4.36336C10.7106 4.36336 9.82163 4.64909 9.08056 5.1804C8.33949 5.71171 7.78353 6.46187 7.49083 7.32547C7.19813 8.18906 7.1834 9.12267 7.4487 9.99507C7.71401 10.8675 8.24602 11.6348 8.96995 12.1892C7.68534 12.7458 6.61266 13.6991 5.90898 14.9094C5.84516 15.0199 5.81156 15.1453 5.81157 15.273C5.81158 15.4006 5.84519 15.526 5.90902 15.6365C5.97285 15.7471 6.06466 15.8388 6.17521 15.9027C6.28576 15.9665 6.41116 16 6.53881 16H16.7178C16.8455 16 16.9709 15.9665 17.0814 15.9027C17.192 15.8388 17.2838 15.7471 17.3476 15.6365C17.4114 15.526 17.4451 15.4006 17.4451 15.273C17.4451 15.1453 17.4115 15.0199 17.3476 14.9094C16.6425 13.6983 15.5678 12.745 14.2812 12.1892H14.2749Z" fill="#F4F4F4"/>
</svg>
