<svg width="20" height="16" viewBox="0 0 20 16" fill="none" xmlns="http://www.w3.org/2000/svg">
<path fill-rule="evenodd" clip-rule="evenodd" d="M17.6052 4.5751C17.5534 4.57205 17.4982 4.57083 17.4397 4.57144H15.1312C13.2404 4.57144 11.623 6.0599 11.623 8.00001C11.623 9.94013 13.2413 11.4286 15.1312 11.4286H17.4397C17.4982 11.4292 17.5537 11.428 17.6061 11.4249C17.9947 11.4015 18.3616 11.2376 18.6383 10.9637C18.915 10.6899 19.0827 10.3248 19.1101 9.93647C19.1138 9.88161 19.1138 9.82218 19.1138 9.76733V6.2327C19.1138 6.17784 19.1138 6.11841 19.1101 6.06356C19.0827 5.67523 18.915 5.31012 18.6383 5.03628C18.3616 4.76244 17.9938 4.59853 17.6052 4.5751ZM14.9291 8.9143C15.4155 8.9143 15.8096 8.5047 15.8096 8.00001C15.8096 7.49533 15.4155 7.08573 14.9291 7.08573C14.4418 7.08573 14.0477 7.49533 14.0477 8.00001C14.0477 8.5047 14.4418 8.9143 14.9291 8.9143Z" fill="#F4F4F4"/>
<path fill-rule="evenodd" clip-rule="evenodd" d="M17.439 12.8C17.4706 12.7987 17.5021 12.8049 17.5309 12.8181C17.5596 12.8313 17.5849 12.851 17.6046 12.8758C17.6242 12.9006 17.6378 12.9296 17.6442 12.9606C17.6505 12.9916 17.6495 13.0237 17.6411 13.0542C17.4582 13.7051 17.1666 14.261 16.6994 14.7273C16.0146 15.413 15.1469 15.7157 14.0754 15.8601C13.0331 16 11.7028 16 10.0223 16H8.09138C6.41092 16 5.07972 16 4.03835 15.8601C2.96681 15.7157 2.09915 15.4121 1.41435 14.7282C0.730464 14.0434 0.426921 13.1758 0.282464 12.1042C0.142578 11.0619 0.142578 9.73166 0.142578 8.0512V7.9488C0.142578 6.26834 0.142578 4.93714 0.282464 3.89486C0.426921 2.82331 0.730464 1.95566 1.41435 1.27086C2.09915 0.586971 2.96681 0.283429 4.03835 0.138971C5.08064 -4.08718e-08 6.41092 0 8.09138 0H10.0223C11.7028 0 13.034 1.08991e-07 14.0754 0.139886C15.1469 0.284343 16.0146 0.587886 16.6994 1.27177C17.1666 1.73989 17.4582 2.29486 17.6411 2.94583C17.6495 2.97634 17.6505 3.00839 17.6442 3.03938C17.6378 3.07037 17.6242 3.09943 17.6046 3.12419C17.5849 3.14895 17.5596 3.16872 17.5309 3.18189C17.5021 3.19507 17.4706 3.20127 17.439 3.2H15.1314C12.5375 3.2 10.2518 5.248 10.2518 8C10.2518 10.752 12.5375 12.8 15.1314 12.8H17.439ZM3.57115 3.65714C3.38929 3.65714 3.21487 3.72939 3.08628 3.85798C2.95768 3.98658 2.88544 4.16099 2.88544 4.34286C2.88544 4.52472 2.95768 4.69913 3.08628 4.82773C3.21487 4.95633 3.38929 5.02857 3.57115 5.02857H7.22829C7.41016 5.02857 7.58457 4.95633 7.71317 4.82773C7.84176 4.69913 7.91401 4.52472 7.91401 4.34286C7.91401 4.16099 7.84176 3.98658 7.71317 3.85798C7.58457 3.72939 7.41016 3.65714 7.22829 3.65714H3.57115Z" fill="#F4F4F4"/>
</svg>
